<?xml version="1.0" encoding="utf-8"?>
<!-- Generator: Adobe Illustrator 16.0.0, SVG Export Plug-In . SVG Version: 6.00 Build 0)  -->
<!DOCTYPE svg PUBLIC "-//W3C//DTD SVG 1.1//EN" "http://www.w3.org/Graphics/SVG/1.1/DTD/svg11.dtd">
<svg version="1.1" id="Layer_1" xmlns="http://www.w3.org/2000/svg" xmlns:xlink="http://www.w3.org/1999/xlink" x="0px" y="0px"
	 width="72px" height="72px" viewBox="0 0 72 72" enable-background="new 0 0 72 72" xml:space="preserve">
<g>
	<path d="M22.478,72.418c5.175-6.373,9.166-14.15,10.432-22.227c1.642-0.752,3.34-1.451,5.074-1.781
		c-0.177,1.75,0.269,3.689,2.057,4.408c0.671-1.018,2.665-0.09,3.823-0.062c0.573-0.914,3.128-0.74,4.399-1.223
		c-0.615-0.828,2.725-1.77,3.73-2.365c-0.967-0.424,1.633-2.838,2.322-3.703c-1.232,0.08,1.806-6.391,2.516-7.465
		c-1.382,0.383-8.136-1.333-7.67-1.999c-1.107,0.118-4.588,0.881-4.406-0.111c-1.05,0.513-3.68,2.753-4.035,1.802
		c-1.089,0.779-2.402,2.985-3.435,2.96c-0.543,0.922-0.901,3.217-2.164,3.105c-0.367,1.84,1.005,3.248,2.572,4.023
		c-1.582,0.609-3.154,1.252-4.706,1.947c0.113-0.793,0.197-1.584,0.253-2.379c0.086,0.035,0.167,0.072,0.254,0.107l0.456-0.119
		c-0.227-0.088-0.453-0.18-0.68-0.273c0.257-3.939-0.194-7.917-1.495-11.809c0.152-0.125,0.307-0.24,0.45-0.37l1.075-0.055
		c2.456,1.222,5.534,1.67,7.583-0.47c-1.118-1.525,1.353-3.835,2.035-5.467c-1.012-1.322,0.657-4.861,0.663-6.935
		c-1.552,0.415-1.068-4.858-1.369-6.616c-1.159,1.137-3.233-3.899-4.11-5.358c-0.564,1.793-8.312-6.126-9.482-7.733
		c-0.215,2.177-6.474,10.818-7.19,9.79c-0.442,1.631-1.269,7.005-2.618,6.193c0.164,1.779,1.967,6.764,0.391,6.736
		c0.102,0.383,0.278,0.807,0.49,1.256l-0.058,0.016c-1.874,0.836,0.243,1.879,0.359,2.816l1.519,0.951
		c0.188,0.58,0.254,1.094,0.086,1.489c1.039,1.286,4.19,3.075,3.328,4.803c1.984,1.242,4.184,0.726,6.017-0.451
		c1.131,3.605,1.558,7.228,1.388,10.81c-0.767-0.35-1.513-0.738-2.181-1.209c1.014-0.771,1.823-1.953,1.325-3.232
		c-0.875,0.158-1.361-1.334-1.917-1.943c-0.764,0.156-1.934-1.251-2.811-1.666c-0.14,0.721-2.28-0.536-3.089-0.763
		c0.248,0.705-2.31,0.554-3.107,0.622c0.651,0.594-4.274,2.213-5.19,2.371c0.88,0.529,3.295,4.855,2.716,4.947
		c0.603,0.51,2.722,1.934,2.107,2.326c0.788,0.293,3.271,0.543,2.943,1.195c0.949,0.182,2.757-0.23,3.256,0.322
		c0.755-0.176,2.146-1.121,2.709-0.42c1.152-0.713,1.227-2.109,0.866-3.303c0.782,0.365,1.57,0.713,2.361,1.055
		c-0.51,9.037-4.767,17.779-10.92,25.16L22.478,72.418z"/>
	<path d="M29.548,45.594h-0.024l-0.003-0.002c-0.382-0.006-0.746-0.137-1.116-0.262c-1.397,1.311-3.283,2.121-5.492,2.41
		c-0.119,0.014-0.173-0.127-0.081-0.162c0.97-0.404,2.024-0.682,3.015-1.049c0.606-0.229,1.164-0.516,1.666-0.855
		c0.245-0.172,0.705-0.414,0.17-0.59c-0.274-0.094-0.546-0.184-0.824-0.275c-0.301-0.08-0.591-0.176-0.86-0.293
		c-0.382-0.121-0.758-0.18-1.086,0.02c-0.341,0.211-0.678,0.354-1.072,0.498c-1.071,0.398-2.095,0.832-3.289,1.029
		c-0.119,0.02-0.167-0.119-0.077-0.162c1.454-0.623,3.107-0.969,4.447-1.736c-0.595-0.199-1.182-0.395-1.773-0.59
		c-0.317-0.109-0.887-0.377-1.2-0.316c-0.122,0.027-0.248,0.186-0.346,0.248c-0.329,0.207-0.89,0.273-1.281,0.412
		c-0.475,0.17-0.946,0.293-1.486,0.334c-0.11,0.008-0.185-0.133-0.078-0.164c1.012-0.277,2.035-0.486,2.835-1.037
		c-1.653-0.557-3.313-1.115-4.969-1.666c-0.12-0.041-0.086-0.17,0.03-0.16c1.719,0.115,3.408,0.994,5.038,1.572
		c-0.281-0.904-0.812-1.723-1.663-2.428c-0.098-0.08,0.024-0.16,0.125-0.115c0.537,0.256,0.847,0.674,1.148,1.094
		c0.192,0.275,0.389,0.537,0.523,0.822c0.11,0.232,0.116,0.508,0.31,0.717c0.128,0.137,0.311,0.242,0.513,0.332
		c0.117,0.043,0.227,0.092,0.311,0.117c0.087,0.029,0.173,0.061,0.26,0.088c0.191,0.055,0.379,0.105,0.537,0.154
		c0.415,0.117,0.833,0.215,1.248,0.336c-0.556-1.432-1.713-2.703-2.337-4.121l0.173-0.059c0.827,0.906,1.496,1.879,2.012,2.902
		c0.221,0.441,0.295,1.047,0.698,1.42c0.11,0.102,0.245,0.186,0.394,0.258c0.404,0.098,0.81,0.24,1.215,0.389l0.155,0.041
		c0.233,0.059,0.469,0.115,0.702,0.18c0.319,0.086,0.072-0.41,0.027-0.602c-0.138-0.531-0.403-1.059-0.695-1.564
		c-0.546-0.938-1.254-1.818-1.74-2.768c-0.045-0.084,0.081-0.166,0.161-0.08c0.875,0.879,1.668,1.875,2.086,2.922
		c0.332,0.818,0.275,2.396,1.671,2.596C29.642,45.443,29.671,45.594,29.548,45.594z"/>
	<path d="M30.349,11.921c0.102,1.44,0.173,2.877,0.316,4.255c0.776-0.708,1.441-1.523,1.993-2.453l1.227-2.98
		c0.062-0.257,0.34-0.101,0.34,0.134c0,0.844-0.245,1.559-0.567,2.231l-0.522,0.992c-0.347,0.607-0.689,1.231-1.122,1.755
		c-0.352,0.433-0.887,0.687-1.12,1.264c-0.146,0.367-0.188,0.813-0.176,1.286c0.024,0.271,0.036,0.522,0.06,0.697
		c0.021,0.197,0.044,0.392,0.071,0.587c0.066,0.417,0.144,0.825,0.197,1.168c0.152,0.9,0.35,1.792,0.493,2.692
		c2.301-2.386,3.725-5.786,5.927-8.291c0.122-0.142,0.354,0.092,0.274,0.279c-1.018,2.425-2.301,4.602-3.832,6.537
		c-0.663,0.84-1.779,1.537-2.137,2.664c-0.093,0.303-0.134,0.634-0.141,0.983c0.176,0.861,0.281,1.774,0.364,2.692
		c0.021,0.116,0.045,0.229,0.065,0.338c0.102,0.501,0.2,0.996,0.292,1.496c0.131,0.701,0.884-0.235,1.2-0.497
		c0.928-0.755,1.71-1.759,2.432-2.789c1.337-1.906,2.409-4.079,3.823-5.899c0.126-0.164,0.397-0.003,0.311,0.241
		c-0.916,2.489-2.143,4.931-3.805,6.702c-1.301,1.391-4.45,2.747-3.546,5.605c0.072,0.231-0.194,0.429-0.307,0.199l-0.021-0.053
		v-0.006c-0.346-0.737-0.417-1.554-0.516-2.376c-3.868-1.459-7.219-4.31-9.837-8.273c-0.14-0.215,0.087-0.441,0.248-0.3
		c1.683,1.482,3.211,3.231,4.856,4.786c1.012,0.957,2.089,1.752,3.226,2.396c0.558,0.313,1.463,0.961,1.319-0.218
		c-0.078-0.61-0.149-1.221-0.229-1.835c-0.12-0.647-0.209-1.293-0.215-1.916c-0.126-0.845-0.355-1.615-1.063-2.061
		c-0.726-0.455-1.316-0.962-1.967-1.582c-1.775-1.683-3.581-3.242-5.08-5.342c-0.146-0.202,0.089-0.43,0.25-0.294
		c2.579,2.2,4.782,5.044,7.542,6.893c-0.161-1.316-0.325-2.628-0.486-3.945c-0.086-0.693-0.086-2.041-0.501-2.585
		c-0.164-0.206-0.588-0.305-0.797-0.432c-0.713-0.438-1.37-1.448-2.006-2.068c-0.775-0.755-1.45-1.536-2.032-2.53
		c-0.119-0.208,0.089-0.477,0.248-0.3c1.483,1.67,2.845,3.44,4.671,4.453c-0.451-3.685-0.896-7.368-1.34-11.049
		c-0.033-0.267,0.25-0.317,0.34-0.094c0.8,1.997,1.075,4.223,1.245,6.46L30.349,11.921z"/>
	<path d="M38.41,47.672l0.023-0.029h0.006c0.37-0.373,0.854-0.609,1.332-0.863c-0.009-2.646,0.951-5.314,2.77-7.799
		c0.096-0.139,0.286-0.051,0.238,0.075c-0.513,1.353-1.229,2.671-1.794,4.019c-0.349,0.828-0.585,1.65-0.713,2.482
		c-0.062,0.406-0.245,1.096,0.438,0.74c0.358-0.191,0.717-0.383,1.075-0.568c0.369-0.225,0.739-0.428,1.121-0.58
		c0.489-0.273,0.905-0.588,1.013-1.111c0.107-0.539,0.283-1.012,0.511-1.549c0.614-1.451,1.148-2.889,2.08-4.271
		c0.092-0.138,0.286-0.048,0.241,0.074c-0.746,2.059-1.974,4.035-2.459,6.109c0.77-0.398,1.537-0.805,2.301-1.203
		c0.409-0.215,1.233-0.533,1.468-0.906c0.088-0.148,0.048-0.426,0.078-0.578c0.099-0.529,0.567-1.154,0.797-1.68
		c0.28-0.638,0.601-1.227,1.074-1.807c0.096-0.116,0.312-0.057,0.242,0.08c-0.678,1.277-1.441,2.498-1.639,3.824
		c2.152-1.121,4.304-2.252,6.455-3.381c0.153-0.081,0.255,0.075,0.139,0.186c-1.765,1.6-4.283,2.461-6.427,3.541
		c1.199,0.576,2.543,0.834,4.08,0.648c0.176-0.023,0.144,0.182,0,0.24c-0.775,0.293-1.505,0.207-2.223,0.1
		c-0.457-0.064-0.92-0.123-1.341-0.258c-0.35-0.107-0.632-0.367-1.035-0.371c-0.263-0.004-0.543,0.076-0.83,0.193
		c-0.164,0.078-0.313,0.143-0.415,0.199c-0.113,0.061-0.23,0.119-0.34,0.18c-0.242,0.139-0.476,0.275-0.672,0.391
		c-0.514,0.301-1.015,0.625-1.534,0.92c1.999,0.818,4.411,0.869,6.465,1.6c0.113,0.043,0.024,0.236-0.11,0.229
		c-1.719-0.037-3.355-0.301-4.895-0.758c-0.666-0.197-1.358-0.699-2.132-0.652c-0.206,0.016-0.417,0.072-0.636,0.15
		c-0.483,0.307-1.021,0.578-1.563,0.844l-0.19,0.115c-0.284,0.176-0.564,0.354-0.849,0.527c-0.396,0.244,0.355,0.471,0.588,0.602
		c0.678,0.375,1.476,0.605,2.274,0.799c1.48,0.352,3.06,0.479,4.504,0.898c0.128,0.037,0.096,0.236-0.075,0.238
		c-1.736,0.037-3.518-0.123-4.993-0.697c-1.151-0.453-2.722-2.014-4.255-0.807C38.479,47.906,38.294,47.795,38.41,47.672z"/>
</g>
</svg>
