<?xml version="1.0" encoding="utf-8"?>
<!-- Generator: Adobe Illustrator 16.0.0, SVG Export Plug-In . SVG Version: 6.00 Build 0)  -->
<!DOCTYPE svg PUBLIC "-//W3C//DTD SVG 1.1//EN" "http://www.w3.org/Graphics/SVG/1.1/DTD/svg11.dtd">
<svg version="1.1" id="Layer_1" xmlns="http://www.w3.org/2000/svg" xmlns:xlink="http://www.w3.org/1999/xlink" x="0px" y="0px"
	 width="72px" height="72px" viewBox="0 0 72 72" enable-background="new 0 0 72 72" xml:space="preserve">
<g>
	<path d="M23.951,18.684c0.908-0.068,1.261,4.062,2.092,3.587c0.652-0.373,0.619,2.054,0.97,1.735
		c0.325-0.297,0.392-1.028,0.733-1.392c0.324-0.342,0.697,0.974,0.653,1.391c-0.08,0.766,0.278,2.373,0.809,2.554
		c0.305,0.104,0.486-0.145,0.701-1.112c0.217-0.966,0.678-1.606,0.879-1.474c0.325,0.216,0.244,1.234,0.327,2.153
		c0.083,0.905,0.523,2.901,0.976,3.075c0.456,0.174,1.266-2.177,2.12-1.456c0.559,0.473-0.029,4.395,0.789,5.037
		c0.462,0.364,1.608-2.705,2.766-1.851c0.712,0.525,0.949,2.192,0.062,4.588c-0.506,1.365-1.726,3.292-1.154,3.92
		c0.233,0.256,0.742-0.031,1.526-0.863c0.503-0.534,1.046-1.518,1.573-1.516c0.545,0.002,1.284,1.23-0.082,4.18
		c-0.141,0.306-0.465,1.9,0.295,2.305c0.803,0.427,1.543-1.086,2.034-1.811c0.703-1.036,1.507-1.896,2.264-1.648
		c0.628,0.209-0.463,2.414,0.3,2.477c0.621,0.05,2.733-5.811,4.076-5.258c1.344,0.553-0.032,2.709,0.424,2.866
		c0.457,0.155,0.639-0.329,0.831-0.534c0.19-0.203,0.016-0.291,1.078-1.725c1.338-1.807,3.699-3.317,3.729-2.405
		c0.03,1.053-1.065,2.212-0.585,2.849c0.614,0.81,2.768-0.348,4.26-0.701c2.354-0.559,4.978,0.488,4.469,0.977
		c-0.585,0.562-2.449,1.391-1.896,1.721c0.794,0.475,2.483,0.078,3.692-0.138c1.777-0.316,3.19,1.314,2.955,1.633
		c-1.003,1.356-3.14-0.217-3.602,0.389c-0.46,0.608,1.066,0.731,0.833,1.388c-0.234,0.654-1.688,0.219-2.31,0.182
		c-0.621-0.039-1.637,0.266-1.434,0.822c0.125,0.336,1.979,1.397,1.608,1.553c-0.51,0.212-2.327,0.162-3.357-0.315
		c-1.029-0.477-2.364-0.765-2.666-0.446c-0.301,0.319,2.702,3.018,1.879,3.358c-0.81,0.334-2.217-0.188-3.878-0.365
		c-1.492-0.158-3.016,0.767-3.437,1.146c-1.345,1.217,2.397,1.15,1.56,2.126c-1.108,1.295-5.874,1.757-5.78,2.996
		c0.095,1.237,3.086,1.214,2.418,2.166c-0.651,0.923-2.449,1.201-4.247,1.405c-1.916,0.217-2.752,0.826-3.12,1.683
		c-0.309,0.715,2.343,0.545,1.791,1.413c-0.8,1.255-4.951,3.337-5.357,8.653c-0.624-1.977-1.715-4.538-2.578-5.06
		c-1.252-0.756-3.031-0.388-3.502-1.052c-0.521-0.734,2.015-1.442-1.153-2.73c-1.176-0.478-3.92,0.089-4.754-0.424
		c-0.8-0.49,2.199-1.052,1.617-1.601c-0.726-0.683-2.583-0.571-4.174,0.067c-1.589,0.642-4.057,2.756-4.743,2.42
		c-0.659-0.324,1.243-1.824,1.113-2.385c-0.153-0.662-1.088-0.804-1.75-0.625c-0.879,0.236-1.437,0.362-1.922,0.16
		c-0.859-0.356,1.432-1.171,1.218-1.701c-0.213-0.529-0.828-0.596-1.558-0.519c-0.731,0.079-2.166,1.138-3.397,0.893
		c-0.554-0.111,0.964-2.032,0.096-1.81c-0.488,0.127-2.996,1.669-4.174,1.638c-1.404-0.036,0.665-2.332-0.138-2.76
		c-0.802-0.428-2.272,1.403-2.646,1.142c-0.652-0.455,0.356-1.328-0.326-1.476c-0.682-0.15-2.614,2.249-3.094,2.235
		c-0.48-0.014,0.319-1.891,1.808-3.081c1.874-1.501,4.104-1.158,4.148-1.611c0.043-0.453-1.071-0.672-1-1.031
		c0.287-1.468,5.162,0.552,5.45,0.147c0.344-0.481-1.444-2.093-1.029-2.395c1.041-0.767,3.301,1.667,3.765,1.354
		c0.608-0.415-0.113-0.768,0.333-1.168c0.714-0.642,1.841,1.123,2.188,0.545c0.51-0.852-2.542-1.974-2.033-2.864
		c0.731-1.275,4.843,2.538,5.37,1.844c0.351-0.466-1.696-1.67-1.542-2.184c0.141-0.467,0.57-0.479,2.022,0.336
		c0.91,0.509,1.667,0.545,1.84,0.199c0.187-0.373-0.432-0.607-0.342-1.345c0.091-0.735,3.458,1.139,3.966,0.521
		c0.508-0.615-3.049-2.578-2.994-3.259c0.055-0.679,1.401-0.944,1.235-1.466c-0.166-0.522-3.627-2.846-3.541-3.92
		c0.11-1.357,3.683,1.132,3.65,0.003c-0.045-1.497-2.421-2.896-2.413-3.954c0.008-1.015,1.669,0.478,1.916-0.095
		c0.246-0.571-2.273-3.055-2.253-3.657c0.018-0.565,1.774,0.869,1.911,0.413c0.225-0.742-3.458-3.077-3.028-3.804
		c0.512-0.867,2.621,0.863,2.775,0.313c0.211-0.761-1.419-1.704-1.268-2.107c0.245-0.647,1.355-0.586,0.583-1.315
		c-0.497-0.466-1.145-1.115-0.982-1.401c0.243-0.435,0.934,0.617,1.153,0.385C24.561,21.586,23.333,18.731,23.951,18.684z"/>
	<path d="M50.643,44.242c0.827-0.564,1.639-1.773,1.71-2.49c-0.396,0.96-1.63,2.195-2.937,2.938v0.001
		c-0.482,0.195-0.954,0.407-1.403,0.654c-2.088,1.148-8.31,4.697-9.354,9.759c-0.09-1.319-0.28-2.704-0.624-4.132
		c-0.385-1.6-2.109-5.514-4.129-9.819l0.005-0.005l-0.031-0.054c-0.149-0.313-0.296-0.629-0.447-0.947
		c-0.565-1.531-0.689-3.518-0.186-4.417c-0.452,0.384-0.774,1.522-0.531,2.91c-0.97-2.033-1.963-4.071-2.872-5.922
		c-0.462-1.675-0.453-3.21-0.105-4.507c-0.356,0.705-0.803,2.128-0.55,3.518c-0.783-1.176-1.864-3.373-2.086-4.833
		c-0.09,2.374,4.853,10.89,6.041,13.399c0.125,0.331,0.27,0.642,0.434,0.919c0.584,1.244,1.142,2.456,1.654,3.59
		c-2.315-2.862-5.14-4.086-6.718-4.131c2.448,0.442,6.324,3.723,7.287,6.035c2.21,3.783,2.529,9.063,2.487,11.129
		c-0.068,0.975-0.097,1.827-0.093,2.681c-0.588-1.854-2.282-3.415-5.214-4.829c-1.198-0.578-2.346-0.868-3.46-1.006l0.001-0.003
		c-1.965-0.467-4.261-1.923-5.012-3.178c0.542,1.188,2.147,2.43,3.686,3.08c-0.846-0.027-1.675-0.001-2.495,0.04
		c-2.118,0.103-4.23,0.25-6.821-0.627c2.386,1.128,4.647,1.034,6.834,0.944c2.256-0.092,4.592-0.187,7.129,1.037
		c2.858,1.378,4.499,2.888,5.053,4.669c-0.392-0.675-0.998-1.298-1.759-1.803c-1.442-0.957-2.915-1.138-4.738-0.466
		c1.029-0.179,2.994-0.296,4.564,0.732c1.21,0.793,1.923,1.884,2.032,2.974c-0.046,1.258-0.094,4.062-0.134,6.094
		c0.248,0.615,0.474,1.244,0.657,1.824c0.037-0.483,0.111-0.929,0.206-1.358c0.047-3.192,0.085-9.552,0.108-10.766
		c0.037-0.513-0.043-1.085-0.009-1.638c0.014-0.212,0.041-0.423,0.073-0.634c1.059-2.519,3.922-4.132,5.263-4.152
		c-1.434-0.229-3.866,1.26-4.989,2.966c0.982-2.77,3.656-5.083,4.783-5.902c2.527-1.839,5.229-1.809,5.788-1.753
		c-0.913-0.308-2.68-0.165-3.658,0.233c0.775-0.583,1.499-1.05,2.083-1.371c1.432-0.787,3.095-1.262,4.704-1.721
		c1.64-0.469,3.189-0.911,4.509-1.657C54.184,43.348,51.538,43.945,50.643,44.242z"/>
</g>
</svg>
