<?xml version="1.0" encoding="utf-8"?>
<!-- Generator: Adobe Illustrator 16.0.0, SVG Export Plug-In . SVG Version: 6.00 Build 0)  -->
<!DOCTYPE svg PUBLIC "-//W3C//DTD SVG 1.1//EN" "http://www.w3.org/Graphics/SVG/1.1/DTD/svg11.dtd">
<svg version="1.1" id="Layer_1" xmlns="http://www.w3.org/2000/svg" xmlns:xlink="http://www.w3.org/1999/xlink" x="0px" y="0px"
	 width="72px" height="72px" viewBox="0 0 72 72" enable-background="new 0 0 72 72" xml:space="preserve">
<g>
	<path d="M21.535,51.517c6.158,10.638,21.604,11.336,28.9,20.513"/>
	<path d="M45.089,65.675c-8.054-7.224-16.439-2.81-24.655-16.539c-0.588-0.986-0.166,1.857,0.357,2.856
		c5.299,10.099,18.177,11.526,26.317,18.41"/>
	<path d="M38.086,2.885c-0.509,0.179-1.084,0.535-1.636,0.922c-2.161,1.51-2.419,1.207-2.823,3.574
		c-0.333,1.925-0.407,8.19-3.637,4.649c-2.3-2.526-3.05,8.19-2.64,9.876c0.882,3.633,1.045,6.406-1.651,4.605
		c-2.921-1.955-0.313,8.106,0.489,9.648c1.554,2.989,3.605,8.193,1.795,7.446c-1.811-0.75-4.83-3.255-2.776,2.412
		c1.506,4.155,6.129,5.053,7.885,8.959c1.556,3.46,4.45,6.471,7.7,8.596c0.393-0.134,0.546,1.328,0.935,1.194
		c0.958-3.413-3.054-7.883,1.267-12.081c2.848-2.771,3.439-5.683,3.703-9.523c0.326-4.851-1.829-2.275-3.371-1.282
		c-1.545,0.992,0.358-3.477,1.438-6.01c0.759-1.789,1.45-9.536-1.257-8.418c-2.599,1.072-2.585-1.178-1.279-4.064
		c0.854-1.891,2.154-9.935-0.408-8.944c-3.828,1.477-2.17-3.496-1.624-5.336C40.642,7.581,40.888-0.364,38.086,2.885z"/>
</g>
</svg>
