<?xml version="1.0" encoding="utf-8"?>
<!-- Generator: Adobe Illustrator 16.0.0, SVG Export Plug-In . SVG Version: 6.00 Build 0)  -->
<!DOCTYPE svg PUBLIC "-//W3C//DTD SVG 1.1//EN" "http://www.w3.org/Graphics/SVG/1.1/DTD/svg11.dtd">
<svg version="1.1" id="Layer_1" xmlns="http://www.w3.org/2000/svg" xmlns:xlink="http://www.w3.org/1999/xlink" x="0px" y="0px"
	 width="72px" height="72px" viewBox="0 0 72 72" enable-background="new 0 0 72 72" xml:space="preserve">
<g>
	<path d="M22.277,41.989c1.646,2.17,4.382,2.706,6.599,2.303c-0.376-0.188-0.725-0.458-1.003-0.828
		c-1.268-1.673-1.959-6.859-1.959-6.859s5.375,1.085,6.771,3.136c0.295,0.429,0.503,0.812,0.642,1.159
		c0.793-1.534,0.768-3.446-1.289-6.458c-2.835-4.159-13.733-6.364-13.733-6.364S19.706,38.598,22.277,41.989z"/>
	<path d="M14.666,66.732c3.119,4.114,8.312,5.133,12.514,4.368c-0.712-0.363-1.369-0.872-1.902-1.575
		c-2.406-3.171-3.716-13.01-3.716-13.01s10.194,2.061,12.845,5.951c0.556,0.813,0.949,1.541,1.216,2.197
		c1.506-2.909,1.455-6.539-2.441-12.251c-5.381-7.888-26.055-12.07-26.055-12.07S9.784,60.297,14.666,66.732z"/>
	<path d="M56.408,67.521c-2.519,3.318-6.708,4.139-10.1,3.523c0.574-0.294,1.104-0.705,1.533-1.269c1.941-2.562,3-10.503,3-10.503
		s-8.227,1.666-10.367,4.804c-0.449,0.655-0.766,1.243-0.98,1.774c-1.217-2.349-1.174-5.277,1.972-9.886
		c4.341-6.367,21.024-9.741,21.024-9.741S60.344,62.326,56.408,67.521z"/>
	<path d="M53.244,45.484c-2.273,2.999-6.061,3.744-9.125,3.186c0.52-0.264,0.998-0.637,1.385-1.146
		c1.756-2.314,2.713-9.49,2.713-9.49s-7.434,1.504-9.369,4.341c-0.406,0.595-0.69,1.123-0.887,1.604
		c-1.099-2.121-1.06-4.771,1.78-8.935c3.926-5.754,19.001-8.805,19.001-8.805S56.806,40.791,53.244,45.484z"/>
	<path d="M42.39,24.205c0.128,2.6-1.542,4.674-3.413,5.741c0.156-0.372,0.242-0.781,0.223-1.224
		c-0.101-2.003-2.784-6.226-2.784-6.226s-3.267,4.101-3.029,6.46c0.049,0.495,0.134,0.902,0.243,1.243
		c-1.523-0.635-2.68-2.054-3.027-5.52c-0.479-4.789,6.142-13.104,6.142-13.104S42.187,20.139,42.39,24.205z"/>
</g>
</svg>
