<?xml version="1.0" encoding="utf-8"?>
<!-- Generator: Adobe Illustrator 15.1.0, SVG Export Plug-In . SVG Version: 6.00 Build 0)  -->
<!DOCTYPE svg PUBLIC "-//W3C//DTD SVG 1.1//EN" "http://www.w3.org/Graphics/SVG/1.1/DTD/svg11.dtd">
<svg version="1.1" id="Layer_1" xmlns="http://www.w3.org/2000/svg" xmlns:xlink="http://www.w3.org/1999/xlink" x="0px" y="0px"
	 width="72px" height="72px" viewBox="0 0 72 72" enable-background="new 0 0 72 72" xml:space="preserve">
<line fill="none" stroke="#000000" stroke-miterlimit="10" x1="31.502" y1="69.337" x2="41.278" y2="69.337"/>
<line fill="none" stroke="#000000" stroke-miterlimit="10" x1="41.278" y1="69.337" x2="41.278" y2="43.757"/>
<line fill="none" stroke="#000000" stroke-miterlimit="10" x1="41.278" y1="43.757" x2="31.502" y2="43.757"/>
<line fill="none" stroke="#000000" stroke-miterlimit="10" x1="31.502" y1="43.757" x2="31.502" y2="69.337"/>
<line fill="none" stroke="#000000" stroke-miterlimit="10" x1="31.502" y1="43.757" x2="7.259" y2="43.757"/>
<line fill="none" stroke="#000000" stroke-miterlimit="10" x1="7.259" y1="43.757" x2="36.391" y2="7.355"/>
<line fill="none" stroke="#000000" stroke-miterlimit="10" x1="36.391" y1="7.355" x2="64.74" y2="43.757"/>
<line fill="none" stroke="#000000" stroke-miterlimit="10" x1="64.74" y1="43.757" x2="41.278" y2="43.757"/>
<g>
	<path d="M19.929,33.201c0.303-0.072,0.699-0.134,1.204-0.134c0.619,0,1.074,0.206,1.362,0.577c0.26,0.33,0.425,0.835,0.425,1.453
		c0,0.629-0.129,1.124-0.375,1.485c-0.338,0.504-0.872,0.763-1.485,0.763c-0.187,0-0.36-0.011-0.504-0.062v2.783h-0.627V33.201z
		 M20.556,36.552c0.137,0.051,0.31,0.072,0.519,0.072c0.757,0,1.218-0.536,1.218-1.474c0-0.928-0.461-1.371-1.146-1.371
		c-0.274,0-0.483,0.031-0.591,0.072V36.552z"/>
	<path d="M23.707,32.748h0.635v7.318h-0.635V32.748z"/>
	<path d="M27.858,38.87c0,0.434,0.015,0.856,0.051,1.196H27.34l-0.051-0.629h-0.021c-0.195,0.393-0.569,0.742-1.066,0.742
		c-0.707,0-1.067-0.711-1.067-1.433c0-1.206,0.749-1.866,2.097-1.855v-0.103c0-0.402-0.079-1.155-0.793-1.145
		c-0.331,0-0.67,0.134-0.915,0.371l-0.144-0.608c0.288-0.257,0.713-0.433,1.153-0.433c1.067,0,1.326,1.041,1.326,2.03V38.87z
		 M27.246,37.521c-0.692-0.021-1.478,0.154-1.478,1.124c0,0.598,0.274,0.865,0.591,0.865c0.461,0,0.757-0.412,0.857-0.835
		c0.022-0.103,0.029-0.206,0.029-0.289V37.521z"/>
	<path d="M31.37,39.892c-0.167,0.113-0.534,0.288-1.002,0.288c-1.052,0-1.737-1.021-1.737-2.546c0-1.536,0.735-2.659,1.874-2.659
		c0.375,0,0.707,0.134,0.88,0.268l-0.145,0.691c-0.151-0.114-0.389-0.237-0.735-0.237c-0.799,0-1.232,0.855-1.232,1.886
		c0,1.154,0.519,1.866,1.211,1.866c0.36,0,0.599-0.124,0.778-0.237L31.37,39.892z"/>
	<path d="M32.423,37.736c0.015,1.228,0.556,1.732,1.196,1.732c0.454,0,0.735-0.113,0.966-0.258l0.116,0.649
		c-0.225,0.145-0.613,0.319-1.168,0.319c-1.074,0-1.716-1.021-1.716-2.525s0.62-2.68,1.637-2.68c1.146,0,1.441,1.422,1.441,2.34
		c0,0.186-0.008,0.319-0.021,0.422H32.423z M34.282,37.087c0.008-0.566-0.165-1.464-0.879-1.464c-0.648,0-0.923,0.836-0.973,1.464
		H34.282z"/>
	<path d="M35.682,32.748h0.635v3.123h0.015c0.101-0.258,0.259-0.495,0.454-0.649c0.187-0.155,0.41-0.247,0.648-0.247
		c0.469,0,1.219,0.412,1.219,2.123v2.969h-0.635v-2.865c0-0.805-0.209-1.475-0.808-1.475c-0.41,0-0.728,0.413-0.851,0.897
		c-0.036,0.134-0.043,0.268-0.043,0.433v3.01h-0.635V32.748z"/>
	<path d="M42.84,37.53c0,1.846-0.9,2.649-1.736,2.649c-0.937,0-1.673-0.989-1.673-2.566c0-1.66,0.772-2.639,1.73-2.639
		C42.163,34.975,42.84,36.016,42.84,37.53z M40.079,37.582c0,1.093,0.434,1.918,1.053,1.918c0.604,0,1.06-0.814,1.06-1.938
		c0-0.846-0.295-1.907-1.045-1.907C40.404,35.654,40.079,36.644,40.079,37.582z"/>
	<path d="M43.642,32.748h0.634v7.318h-0.634V32.748z"/>
	<path d="M48.348,32.748v6.03c0,0.443,0.015,0.948,0.029,1.288h-0.562L47.786,39.2h-0.021c-0.188,0.558-0.604,0.979-1.175,0.979
		c-0.843,0-1.499-1.021-1.499-2.536c-0.008-1.659,0.721-2.669,1.563-2.669c0.541,0,0.895,0.36,1.053,0.752h0.015v-2.979H48.348z
		 M47.722,37.108c0-0.114-0.008-0.269-0.029-0.382c-0.094-0.567-0.439-1.041-0.916-1.041c-0.655,0-1.044,0.824-1.044,1.917
		c0,1.011,0.353,1.846,1.03,1.846c0.426,0,0.814-0.413,0.93-1.083c0.021-0.123,0.029-0.247,0.029-0.392V37.108z"/>
	<path d="M49.763,37.736c0.014,1.228,0.555,1.732,1.196,1.732c0.454,0,0.735-0.113,0.966-0.258l0.115,0.649
		c-0.224,0.145-0.612,0.319-1.168,0.319c-1.073,0-1.715-1.021-1.715-2.525s0.619-2.68,1.636-2.68c1.146,0,1.441,1.422,1.441,2.34
		c0,0.186-0.007,0.319-0.021,0.422H49.763z M51.622,37.087c0.008-0.566-0.165-1.464-0.88-1.464c-0.647,0-0.922,0.836-0.973,1.464
		H51.622z"/>
	<path d="M53.021,36.634c0-0.587-0.007-1.093-0.028-1.556h0.555l0.028,0.99h0.021c0.159-0.671,0.548-1.093,0.973-1.093
		c0.066,0,0.115,0.01,0.174,0.02v0.856c-0.064-0.021-0.131-0.021-0.216-0.021c-0.448,0-0.765,0.474-0.852,1.154
		c-0.014,0.124-0.021,0.278-0.021,0.423v2.659h-0.634V36.634z"/>
</g>
</svg>
