<?xml version="1.0" encoding="utf-8"?>
<!-- Generator: Adobe Illustrator 16.0.0, SVG Export Plug-In . SVG Version: 6.00 Build 0)  -->
<!DOCTYPE svg PUBLIC "-//W3C//DTD SVG 1.1//EN" "http://www.w3.org/Graphics/SVG/1.1/DTD/svg11.dtd">
<svg version="1.1" id="Layer_1" xmlns="http://www.w3.org/2000/svg" xmlns:xlink="http://www.w3.org/1999/xlink" x="0px" y="0px"
	 width="72px" height="72px" viewBox="0 0 72 72" enable-background="new 0 0 72 72" xml:space="preserve">
<path d="M40.055,72c4.521-3.368,6.882-7.645,6.671-12.74l0.077,0.038c-1.465-7.626,13.229-18.416,10.86-24.167
	c-1.417,0.948-3.803,1.249-5.023,2.792c-0.489-6.376-1.688-12.625-4.762-18.839c-0.032,2.382-0.634,4.759-0.97,7.059
	c-2.291-4.526-4.691-9.212-7.374-13.79c-0.454,1.581-2.1,4.075-2.566,5.854C32.323,11.615,26.915,7.075,21.021,1.543l-0.229-0.174
	c1.676,7.482,2.438,13.692,4.621,21.054c-1.784-0.864-4.879-1.467-6.54-2.098c2.107,4.522,3.875,9.138,5.765,13.494
	c-2.002-1.329-4.247-2.521-6.09-4.031c2.75,5.808,6.008,10.766,10.038,15.63c-1.982-0.419-4.04,0.694-5.762,0.812
	c1.799,4.889,18.785,5.496,23.18,12.091c0.064,5.061-2.523,9.082-7.454,12.004L40.055,72z"/>
</svg>
