<?xml version="1.0" encoding="utf-8"?>
<!-- Generator: Adobe Illustrator 16.0.0, SVG Export Plug-In . SVG Version: 6.00 Build 0)  -->
<!DOCTYPE svg PUBLIC "-//W3C//DTD SVG 1.1//EN" "http://www.w3.org/Graphics/SVG/1.1/DTD/svg11.dtd">
<svg version="1.1" id="Layer_1" xmlns="http://www.w3.org/2000/svg" xmlns:xlink="http://www.w3.org/1999/xlink" x="0px" y="0px"
	 width="72px" height="72px" viewBox="0 0 72 72" enable-background="new 0 0 72 72" xml:space="preserve">
<g>
	<path d="M41.888,71.653L42.222,72c-0.653-5.029-1.164-10.229-0.558-15.158c4.191,1.814,9.343,2.272,12.558-1.515
		c-1.997-2.454,1.886-6.58,2.873-9.388c-1.801-2.12,0.629-8.23,0.452-11.706c-2.528,0.847-2.231-8.053-2.896-10.991
		c-1.822,2.027-5.735-6.242-7.328-8.608C46.553,17.7,32.936,5.139,30.846,2.556C30.69,6.231,21.084,21.34,19.81,19.683
		c-0.588,2.792-1.452,11.895-3.767,10.648c0.432,2.976,3.896,11.175,1.271,11.29c1.063,3.291,5.483,8.243,4.599,10.745
		c1.849,2.047,7.253,4.751,5.98,7.747c4.259,2.351,8.83,0.134,11.985-3.079c0.286,4.583,0.637,9.174,1.18,13.75l0.575,0.6"/>
	<path d="M21.931,38.201c-0.255-0.341,0.105-0.744,0.381-0.528c2.938,2.34,5.649,5.134,8.525,7.584
		c1.769,1.507,3.635,2.739,5.59,3.712c0.962,0.479,2.511,1.48,2.156-0.481c-0.18-1.02-0.361-2.049-0.548-3.069
		c-0.257-1.073-0.469-2.157-0.544-3.199c-0.27-1.408-0.737-2.674-1.941-3.36c-1.254-0.694-2.284-1.491-3.427-2.472
		c-3.103-2.65-6.242-5.097-8.936-8.479c-0.258-0.347,0.114-0.739,0.383-0.525c4.497,3.445,8.424,8.01,13.178,10.864
		c-0.393-2.197-0.777-4.391-1.166-6.587c-0.211-1.159-0.343-3.421-1.084-4.285c-0.284-0.34-1.004-0.464-1.364-0.65
		c-1.217-0.664-2.41-2.308-3.529-3.286c-1.351-1.19-2.556-2.445-3.609-4.059c-0.23-0.334,0.102-0.812,0.376-0.531
		c2.628,2.67,5.06,5.513,8.173,7.037c-1.073-6.145-2.162-12.289-3.255-18.428C31.218,7.01,31.68,6.89,31.851,7.27
		c2.583,5.565,2.719,12.394,3.688,18.479c2.374-2.458,4.078-5.527,4.836-9.435c0.083-0.436,0.56-0.201,0.586,0.201
		c0.121,2.125-0.668,3.817-1.495,5.498c-0.53,1.078-1.049,2.146-1.714,3.07c-0.549,0.756-1.411,1.243-1.743,2.227
		c-0.208,0.631-0.227,1.381-0.172,2.176c0.063,0.458,0.111,0.877,0.161,1.168c0.06,0.331,0.114,0.663,0.175,0.984
		c0.151,0.698,0.323,1.362,0.443,1.946c0.337,1.486,0.733,2.971,1.061,4.474c3.611-4.232,5.649-10.076,9.077-14.509
		c0.2-0.241,0.597,0.13,0.489,0.456c-1.471,4.169-3.403,7.953-5.76,11.343c-1.02,1.472-2.823,2.759-3.296,4.674
		c-0.139,0.521-0.166,1.082-0.155,1.667c0.388,1.434,0.639,2.969,0.866,4.496c0.045,0.188,0.094,0.373,0.137,0.563
		c0.214,0.82,0.42,1.649,0.623,2.479c0.289,1.176,1.453-0.479,1.953-0.954c1.472-1.35,2.676-3.104,3.789-4.917
		c2.027-3.33,3.611-7.091,5.789-10.271c0.198-0.291,0.672-0.041,0.541,0.375c-1.287,4.268-3.102,8.487-5.696,11.633
		c-2.027,2.45-7.138,5.028-5.373,9.745c0.15,0.38-0.272,0.738-0.481,0.367l-0.037-0.089l-0.008,0.005l0.002-0.011
		c-0.645-1.204-0.84-2.578-1.086-3.938C32.49,49.086,26.647,44.614,21.931,38.201z"/>
</g>
</svg>
