<?xml version="1.0" encoding="utf-8"?>
<!-- Generator: Adobe Illustrator 16.0.0, SVG Export Plug-In . SVG Version: 6.00 Build 0)  -->
<!DOCTYPE svg PUBLIC "-//W3C//DTD SVG 1.1//EN" "http://www.w3.org/Graphics/SVG/1.1/DTD/svg11.dtd">
<svg version="1.1" id="Layer_1" xmlns="http://www.w3.org/2000/svg" xmlns:xlink="http://www.w3.org/1999/xlink" x="0px" y="0px"
	 width="72px" height="72px" viewBox="0 0 72 72" enable-background="new 0 0 72 72" xml:space="preserve">
<g>
	<path d="M27.426,69.408c-4.906-0.222-9.015,1.8-13.775-1.215c-4.248-2.681-6.139-7.585-11.185-10.095
		c5.301,3.099,8.495-2.007,13.574-2.574c5.978-0.667,9.492,4.755,11.747,9.906c-3.205-4.855-9.683-6.153-15.086-4.665
		c6.655,0.312,12.748,3.815,16.031,9.279L27.426,69.408z"/>
	<path d="M31.034,62.805c-3.59-3.356-8.026-4.492-9.689-9.876c-1.483-4.794,0.263-9.753-1.943-14.94
		c2.02,5.803,7.761,3.994,11.995,6.861c4.976,3.377,4.127,9.779,2.494,15.157c0.715-5.771-3.364-10.968-8.438-13.345
		c4.856,4.565,7.214,11.182,6.16,17.469L31.034,62.805z"/>
	<path d="M36.841,59.591c0.333-4.901-1.585-9.06,1.538-13.746c2.783-4.179,7.727-5.954,10.359-10.94
		c-3.225,5.228,1.804,8.541,2.254,13.632c0.522,5.99-4.981,9.373-10.187,11.506c4.932-3.09,6.379-9.533,5.024-14.969
		c-0.475,6.645-4.118,12.65-9.655,15.805L36.841,59.591z"/>
	<path d="M43.436,66.862c4.903,0.35,8.751,2.83,13.828,0.384c4.521-2.173,6.969-6.825,12.271-8.738
		c-5.624,2.465-8.205-2.97-13.186-4.124c-5.862-1.349-9.977,3.63-12.808,8.485c3.74-4.454,10.325-4.994,15.518-2.896
		c-6.645-0.452-13.099,2.321-16.99,7.365L43.436,66.862z"/>
</g>
</svg>
